<svg width="43" height="50" viewBox="0 0 43 50" fill="none" xmlns="http://www.w3.org/2000/svg">
<path d="M27.1579 18.1818H31.6842V22.7273H27.1579V18.1818ZM31.6842 9.09091H27.1579V13.6364H31.6842V9.09091ZM18.1053 31.8182H22.6316V27.2727H18.1053V31.8182ZM22.6316 9.09091H18.1053V13.6364H22.6316V9.09091ZM18.1053 22.7273H22.6316V18.1818H18.1053V22.7273ZM13.5789 9.09091H9.05263V13.6364H13.5789V9.09091ZM13.5789 18.1818H9.05263V22.7273H13.5789V18.1818ZM26.1395 45.4545H22.6316V37.5H18.1053V45.4545H4.52632V4.54545H36.2105V22.7955C37.8174 22.9318 39.3563 23.4318 40.7368 24.1591V0H0V50H29.2174C28.2895 48.7273 27.1579 47.1818 26.1395 45.4545ZM9.05263 40.9091H13.5789V36.3636H9.05263V40.9091ZM13.5789 27.2727H9.05263V31.8182H13.5789V27.2727ZM43 35.2273C43 41.1364 35.0789 50 35.0789 50C35.0789 50 27.1579 41.1364 27.1579 35.2273C27.1579 30.9091 30.7789 27.2727 35.0789 27.2727C39.3789 27.2727 43 30.9091 43 35.2273ZM37.7947 35.4545C37.7947 34.0909 36.4368 32.7273 35.0789 32.7273C33.7211 32.7273 32.3632 33.8636 32.3632 35.4545C32.3632 36.8182 33.4947 38.1818 35.0789 38.1818C36.6632 38.1818 38.0211 36.8182 37.7947 35.4545Z" fill="white"/>
</svg>
