<svg width="48" height="36" viewBox="0 0 48 36" fill="none" xmlns="http://www.w3.org/2000/svg">
<path d="M23.1988 20.1183C21.8015 20.1183 20.6582 18.975 20.6582 17.5777C20.6582 16.1803 21.8015 15.037 23.1988 15.037C24.5961 15.037 25.7394 16.1803 25.7394 17.5777C25.7394 18.975 24.5961 20.1183 23.1988 20.1183Z" fill="white"/>
<path d="M23.8202 28.9151C26.7681 28.9151 29.5953 27.744 31.6798 25.6595C33.7643 23.575 34.9354 20.7479 34.9354 17.7999C34.9354 14.852 33.7643 12.0248 31.6798 9.94034C29.5953 7.85584 26.7681 6.68478 23.8202 6.68478C20.8723 6.68478 18.0451 7.85584 15.9606 9.94034C13.8761 12.0248 12.7051 14.852 12.7051 17.7999C12.7051 20.7479 13.8761 23.575 15.9606 25.6595C18.0451 27.744 20.8723 28.9151 23.8202 28.9151ZM23.8202 10.6545C27.7105 10.7021 30.8704 13.9573 30.8704 17.8793V19.1655C30.8704 20.5787 29.7113 21.7379 28.298 21.7379C27.3294 21.7379 26.4879 21.198 26.0433 20.4041C25.3128 21.1345 24.2966 21.595 23.1851 21.595C20.962 21.595 19.1519 19.7848 19.1519 17.5618C19.1519 15.3387 20.962 13.5285 23.1851 13.5285C24.1537 13.5285 25.027 13.8779 25.7257 14.4336V14.2907C25.7257 13.8779 26.0909 13.5444 26.5037 13.5444C26.9166 13.5444 27.25 13.8779 27.25 14.2907V19.1814C27.25 19.4635 27.3621 19.7341 27.5617 19.9337C27.7612 20.1332 28.0318 20.2453 28.3139 20.2453C28.5961 20.2453 28.8667 20.1332 29.0662 19.9337C29.2657 19.7341 29.3778 19.4635 29.3778 19.1814V17.8952C29.3778 14.7671 26.869 12.1947 23.8043 12.1471C22.28 12.1471 20.835 12.7187 19.7553 13.7826C18.6755 14.8465 18.0721 16.2756 18.0721 17.7999C18.0721 20.9122 20.6127 23.4528 23.725 23.4528C23.9229 23.4528 24.1127 23.5314 24.2527 23.6714C24.3926 23.8113 24.4713 24.0012 24.4713 24.1991C24.4713 24.397 24.3926 24.5868 24.2527 24.7268C24.1127 24.8668 23.9229 24.9454 23.725 24.9454C19.787 24.9454 16.5795 21.7379 16.5795 17.7999C16.5795 15.8786 17.3258 14.0684 18.7073 12.7187C20.0728 11.3531 21.8989 10.6227 23.8202 10.6545Z" fill="white"/>
<path d="M3.56592e-06 3.52489C3.56592e-06 1.75917 1.42592 0.333252 3.19164 0.333252H44.4606C46.2216 0.333252 47.6364 1.76869 47.6364 3.52489V32.0908C47.6364 33.8518 46.2009 35.2666 44.4447 35.2666H3.19164C2.77233 35.2672 2.35702 35.1851 1.96951 35.0249C1.582 34.8647 1.22991 34.6297 0.933413 34.3332C0.636918 34.0367 0.401847 33.6846 0.241675 33.2971C0.0815023 32.9096 -0.000623672 32.4943 3.56592e-06 32.0749V3.52489ZM3.17576 3.51695V4.30612L13.2588 10.7307C12.6633 11.6178 12.182 12.5765 11.8265 13.5841L3.17576 8.07098V28.4069L12.0996 22.7208C12.5117 23.7009 13.0452 24.6253 13.6875 25.4725L3.30279 32.0908H44.3574L33.9457 25.4646C34.5883 24.6164 35.1217 23.6908 35.5336 22.7096L44.4606 28.3927V8.0821L35.8035 13.592C35.4491 12.5841 34.9689 11.6248 34.3744 10.737L44.4606 4.32042V3.51377L44.4543 3.50901H3.1837L3.17894 3.51218L3.17576 3.51695Z" fill="white"/>
</svg>
