<svg width="14" height="12" viewBox="0 0 14 12" fill="none" xmlns="http://www.w3.org/2000/svg">
<path d="M13.8693 6.32678L8.50747 11.8759C8.42277 11.9576 8.31074 12.002 8.19498 11.9999C8.07923 11.9978 7.96878 11.9493 7.88692 11.8646C7.80505 11.7798 7.75816 11.6655 7.75611 11.5457C7.75407 11.4259 7.79704 11.31 7.87597 11.2223L12.4745 6.46243H0.446821C0.328317 6.46243 0.214666 6.41371 0.130871 6.32698C0.0470756 6.24026 0 6.12264 0 6C0 5.87736 0.0470756 5.75974 0.130871 5.67302C0.214666 5.58629 0.328317 5.53757 0.446821 5.53757H12.4745L7.87597 0.777672C7.79704 0.690011 7.75407 0.574068 7.75611 0.454268C7.75816 0.334468 7.80505 0.220166 7.88692 0.135441C7.96878 0.0507169 8.07923 0.00218577 8.19498 7.20443e-05C8.31074 -0.00204168 8.42277 0.042427 8.50747 0.12411L13.8693 5.67322C13.953 5.75992 14 5.87746 14 6C14 6.12254 13.953 6.24008 13.8693 6.32678Z" fill="white"/>
</svg>
