<svg width="44" height="55" viewBox="0 0 44 55" fill="none" xmlns="http://www.w3.org/2000/svg">
<path d="M0 6.04985C0 4.44533 0.637377 2.90653 1.77192 1.77196C2.90645 0.637393 4.44522 0 6.0497 0H24.7488C26.3532 0 27.892 0.637393 29.0265 1.77196C30.1611 2.90653 30.7985 4.44533 30.7985 6.04985V24.2346C29.6976 24.1623 28.5922 24.1992 27.4986 24.3446V6.04985C27.4986 4.53189 26.2667 3.29992 24.7488 3.29992H6.0497C4.53177 3.29992 3.29984 4.53189 3.29984 6.04985V46.7489C3.29984 48.2668 4.53177 49.4988 6.0497 49.4988H14.3433L13.3753 52.7987H6.0497C4.44522 52.7987 2.90645 52.1613 1.77192 51.0267C0.637377 49.8922 0 48.3534 0 46.7489V6.04985ZM43.9978 40.699C43.998 43.1872 43.3491 45.6323 42.115 47.7929C40.8809 49.9534 39.1044 51.7545 36.9611 53.0183C34.8179 54.282 32.3819 54.9646 29.8941 54.9987C27.4062 55.0327 24.9525 54.417 22.7755 53.2123L16.7984 54.9525C16.6091 55.0077 16.4084 55.011 16.2174 54.962C16.0264 54.9131 15.852 54.8137 15.7126 54.6743C15.5732 54.5348 15.4738 54.3605 15.4248 54.1695C15.3759 53.9785 15.3792 53.7778 15.4344 53.5885L17.1833 47.62C16.1287 45.7103 15.5251 43.5847 15.4185 41.4057C15.3119 39.2268 15.7053 37.0523 16.5686 35.0488C17.4318 33.0453 18.7419 31.2659 20.3988 29.8468C22.0556 28.4276 24.0151 27.4064 26.1274 26.8612C28.2397 26.3161 30.4487 26.2615 32.5854 26.7015C34.722 27.1416 36.7297 28.0648 38.4546 29.4003C40.1795 30.7358 41.576 32.4483 42.5372 34.4067C43.4984 36.3651 43.9966 38.5175 43.9978 40.699ZM24.1988 37.3991C23.9071 37.3991 23.6273 37.515 23.421 37.7213C23.2147 37.9275 23.0988 38.2073 23.0988 38.4991C23.0988 38.7908 23.2147 39.0706 23.421 39.2769C23.6273 39.4831 23.9071 39.599 24.1988 39.599H35.1982C35.49 39.599 35.7697 39.4831 35.976 39.2769C36.1823 39.0706 36.2982 38.7908 36.2982 38.4991C36.2982 38.2073 36.1823 37.9275 35.976 37.7213C35.7697 37.515 35.49 37.3991 35.1982 37.3991H24.1988ZM23.0988 42.8989C23.0988 43.1907 23.2147 43.4705 23.421 43.6768C23.6273 43.883 23.9071 43.9989 24.1988 43.9989H29.6985C29.9902 43.9989 30.27 43.883 30.4763 43.6768C30.6826 43.4705 30.7985 43.1907 30.7985 42.8989C30.7985 42.6072 30.6826 42.3274 30.4763 42.1212C30.27 41.9149 29.9902 41.799 29.6985 41.799H24.1988C23.9071 41.799 23.6273 41.9149 23.421 42.1212C23.2147 42.3274 23.0988 42.6072 23.0988 42.8989Z" fill="white"/>
</svg>
