<svg width="50" height="33" viewBox="0 0 50 33" fill="none" xmlns="http://www.w3.org/2000/svg">
<path d="M37.0792 0C41.1946 0 44.2998 1.28736 46.3908 3.86115C47.4136 5.11908 48.1805 6.54897 48.6904 8.14897C49.1975 9.73609 49.4506 11.4814 49.4506 13.3812C49.4506 15.5375 49.1347 17.5917 48.5031 19.5439C47.8705 21.497 46.9239 23.337 45.6655 25.0621C44.4051 26.788 42.8675 28.3108 41.0527 29.6285C39.2495 30.9379 37.1739 32.0423 34.8289 32.9416C34.6944 32.9929 34.5484 33.0108 34.4047 32.9937C34.261 32.9767 34.1241 32.9252 34.0069 32.8441L25.4603 27.6432C25.0624 27.4014 24.9455 26.8984 25.1995 26.5205C25.293 26.3796 25.43 26.2697 25.5917 26.206C27.1988 25.5641 28.6543 24.9113 29.9562 24.2474C31.2572 23.5835 32.4172 22.903 33.4352 22.2069C34.4222 21.532 35.2741 20.7871 35.9898 19.9724C36.2274 19.703 36.4495 19.4262 36.6562 19.1421C36.2071 19.2754 35.728 19.3416 35.2191 19.3416C33.9132 19.3416 32.6847 19.1457 31.5354 18.7559C30.3831 18.366 29.3169 17.7802 28.3366 16.9995C27.3292 16.1986 26.5729 15.2184 26.0698 14.0625C25.5752 12.9269 25.327 11.6313 25.327 10.1766C25.327 8.50575 25.5878 7.03356 26.1074 5.76184C26.6396 4.45793 27.4422 3.37379 28.5104 2.5131C29.5583 1.66989 30.8081 1.03724 32.2588 0.617931C33.6824 0.205977 35.2896 0 37.0792 0ZM45.0377 4.85609C43.2915 2.70805 40.6383 1.6331 37.0792 1.6331C35.4441 1.6331 34.0021 1.81425 32.7543 2.17471C31.5344 2.52782 30.4875 3.05563 29.6163 3.75816C28.7673 4.4423 28.1279 5.30667 27.702 6.34943C27.2626 7.42437 27.0423 8.70069 27.0423 10.1766C27.0423 11.4198 27.2461 12.5076 27.6508 13.4372C28.0478 14.3467 28.6427 15.1182 29.4357 15.749C30.2557 16.4018 31.1471 16.892 32.1081 17.2184C33.0691 17.5448 34.1064 17.7085 35.2191 17.7085C36.0931 17.7085 36.8291 17.4014 37.426 16.789C37.7292 16.4818 38.2344 16.4423 38.5859 16.709L39.0148 17.0363C39.3209 17.2589 39.4397 17.6598 39.2765 18.0101C38.7694 19.0979 38.1107 20.1012 37.3043 21.0189C36.5007 21.9329 35.5436 22.7697 34.4338 23.5283C33.356 24.2648 32.1313 24.9839 30.7608 25.6828C29.8162 26.1646 28.8069 26.6354 27.7339 27.0961L34.5951 31.2717C36.6301 30.4579 38.4362 29.4786 40.0134 28.3338C41.6824 27.1218 43.0964 25.7205 44.2573 24.1306C45.4192 22.5389 46.2894 20.8497 46.867 19.0657C47.4455 17.2791 47.7352 15.3839 47.7352 13.3812C47.7352 11.6276 47.5083 10.0405 47.0553 8.62161C46.6071 7.21471 45.934 5.95862 45.0377 4.85609ZM12.014 0C16.1304 0 19.2346 1.28736 21.3266 3.86115C22.3484 5.11908 23.1153 6.54897 23.6262 8.14897C24.1323 9.73609 24.3863 11.4814 24.3863 13.3812C24.3863 17.7103 23.124 21.6046 20.6003 25.0621C19.3408 26.788 17.8022 28.3108 15.9875 29.6285C14.1852 30.9379 12.1096 32.0423 9.76365 32.9416C9.62916 32.9928 9.48323 33.0107 9.33951 32.9937C9.19578 32.9766 9.05893 32.9252 8.94173 32.8441L0.395106 27.6432C-0.00281618 27.4014 -0.119682 26.8984 0.134332 26.5205C0.227774 26.3796 0.364761 26.2697 0.526458 26.206C2.1336 25.5641 3.5891 24.9113 4.89201 24.2474C6.19298 23.5835 7.35294 22.903 8.37092 22.2069C9.35704 21.532 10.2089 20.7871 10.9255 19.9724C11.1641 19.7012 11.3872 19.4225 11.5958 19.1366C11.1409 19.2726 10.6599 19.3416 10.1538 19.3416C8.84611 19.3416 7.61661 19.1457 6.46727 18.7559L6.42478 18.7402C5.28896 18.3485 4.23814 17.7683 3.27231 16.9995C2.26495 16.1986 1.50871 15.2184 1.00454 14.0625C0.510039 12.9269 0.262787 11.6313 0.262787 10.1766C0.262787 8.50575 0.522595 7.03356 1.04221 5.76184C1.57535 4.45793 2.37699 3.37379 3.44616 2.5131C4.49312 1.66989 5.7429 1.03724 7.19358 0.617931C8.61721 0.205977 10.2253 0 12.014 0ZM19.9725 4.85609C18.2262 2.70805 15.5741 1.6331 12.014 1.6331C10.3789 1.6331 8.9369 1.81425 7.69002 2.17471C6.46921 2.52782 5.42321 3.05563 4.55204 3.75816C3.70211 4.4423 3.06369 5.30667 2.63776 6.34943C2.19831 7.42437 1.9781 8.70069 1.9781 10.1766C1.9781 11.4198 2.18092 12.5076 2.58657 13.4372C2.98256 14.3467 3.57848 15.1182 4.37143 15.749C5.18272 16.3954 6.06163 16.8809 7.00524 17.2064L7.04388 17.2184C8.00488 17.5448 9.04218 17.7085 10.1538 17.7085C10.5991 17.7085 11.0028 17.6331 11.3621 17.4832C11.7243 17.3324 12.0585 17.1007 12.3617 16.789C12.665 16.4818 13.1701 16.4423 13.5207 16.709L13.9505 17.0363C14.1025 17.1472 14.2109 17.3035 14.2584 17.4801C14.3058 17.6567 14.2896 17.8434 14.2123 18.0101C13.7056 19.096 13.0414 20.1088 12.2391 21.0189C11.4355 21.9329 10.4784 22.7697 9.36959 23.5283C8.29173 24.2648 7.06609 24.9839 5.69558 25.6828C4.751 26.1646 3.74267 26.6354 2.66867 27.0961L9.52992 31.2717C11.5649 30.4579 13.372 29.4786 14.9482 28.3338C16.6172 27.1218 18.0321 25.7205 19.193 24.1306C21.511 20.9545 22.67 17.371 22.67 13.3812C22.67 11.6276 22.444 10.0405 21.9911 8.62161C21.5419 7.21471 20.8688 5.95862 19.9725 4.85609Z" fill="#5136A9"/>
</svg>
