<svg width="123" height="81" viewBox="0 0 123 81" fill="none" xmlns="http://www.w3.org/2000/svg">
<path fill-rule="evenodd" clip-rule="evenodd" d="M51.57 57.0964C55.4 60.5464 72.44 63.0964 76.66 65.4464C76.9021 65.5824 77.1358 65.7327 77.36 65.8964C80.26 65.1464 82.85 64.2964 84.21 63.0664C84.1691 62.2652 84.0142 61.4739 83.75 60.7164C80.9904 58.1037 79.3642 54.5139 79.22 50.7164C76.39 51.0164 75.93 39.7964 79.22 43.5964L79.03 42.9264C78.6258 42.5478 78.3704 42.037 78.31 41.4864V34.3764L89.24 37.7164C91.2822 38.1663 93.3978 38.1663 95.44 37.7164L106.88 34.4164L107.07 41.4164C107.02 42.007 106.835 42.5783 106.53 43.0864C106.266 43.4401 105.924 43.7276 105.53 43.9264V44.0464C108.8 41.5164 107.53 52.0464 104.42 51.7764C104.405 54.9443 103.19 57.9888 101.02 60.2964L100.54 60.7764C100.256 61.5166 100.113 62.3036 100.12 63.0964C102.98 65.6764 115.75 67.5964 118.9 69.3564C122.9 71.5764 121.99 76.9164 122.9 80.8664H0C1.18 75.6464 0 68.4064 5.31 65.4864C11.13 62.2564 25.85 61.2364 30.4 57.1364C30.3426 56.069 30.1338 55.0151 29.78 54.0064C26.0899 50.5101 23.9178 45.7064 23.73 40.6264C20 40.9964 19.33 25.9964 23.73 30.9964C23.57 30.4364 23.42 29.9164 23.29 29.4264C22.5923 28.8913 22.1297 28.1061 22 27.2364V17.5664L37 22.1464C39.8006 22.7555 42.6994 22.7555 45.5 22.1464L61.18 17.6164L61.44 27.1564C61.3691 27.9672 61.1125 28.7508 60.69 29.4464C60.2632 30.0029 59.6977 30.4375 59.05 30.7064C58.97 31.0164 58.88 31.3264 58.78 31.6564C63.16 28.2864 61.41 42.2964 57.31 41.9964C57.2837 46.2291 55.6626 50.2962 52.77 53.3864L52.12 54.0264C51.7444 55.0128 51.5578 56.061 51.57 57.1164V57.0964ZM111.74 30.3464V37.9064H112C112.088 37.9064 112.171 37.9412 112.233 38.0031C112.295 38.065 112.33 38.1489 112.33 38.2364V40.5264C112.33 40.6149 112.296 40.6999 112.234 40.7634C112.172 40.8269 112.088 40.8638 112 40.8664H111.73V41.6664C111.899 41.6969 112.051 41.7858 112.161 41.9174C112.271 42.0491 112.33 42.2151 112.33 42.3864C112.33 42.5827 112.252 42.7709 112.113 42.9097C111.974 43.0485 111.786 43.1264 111.59 43.1264H110.27C110.074 43.1264 109.886 43.0485 109.747 42.9097C109.608 42.7709 109.53 42.5827 109.53 42.3864C109.53 42.2136 109.591 42.0465 109.703 41.9146C109.815 41.7828 109.97 41.6948 110.14 41.6664V40.8664H109.87C109.78 40.8664 109.693 40.8306 109.63 40.7668C109.566 40.7031 109.53 40.6166 109.53 40.5264V38.2364C109.533 38.148 109.57 38.0641 109.633 38.0024C109.697 37.9408 109.782 37.9064 109.87 37.9064H110.14V30.8464L96.22 35.1764C93.7347 35.7963 91.1353 35.7963 88.65 35.1764L73.28 30.5864L71.89 30.1664C70.16 29.4664 70.59 27.7964 72.2 27.4164L89.59 22.2264C91.3414 21.6779 93.2186 21.6779 94.97 22.2264L112 27.3564C113.86 27.8064 114.22 29.5264 112.06 30.2364L111.7 30.3464H111.74ZM67.8 11.6864V22.4064H68.17C68.2903 22.4064 68.4058 22.4535 68.4918 22.5376C68.5778 22.6217 68.6274 22.7362 68.63 22.8564V25.9964C68.6274 26.1167 68.5778 26.2311 68.4918 26.3152C68.4058 26.3994 68.2903 26.4465 68.17 26.4464H67.8V27.5464C68.0348 27.5869 68.2474 27.7099 68.3996 27.8932C68.5518 28.0766 68.6335 28.3082 68.63 28.5464C68.63 28.8116 68.5246 29.066 68.3371 29.2535C68.1496 29.4411 67.8952 29.5464 67.63 29.5464H65.8C65.5348 29.5464 65.2804 29.4411 65.0929 29.2535C64.9054 29.066 64.8 28.8116 64.8 28.5464C64.7965 28.3082 64.8782 28.0766 65.0304 27.8932C65.1826 27.7099 65.3952 27.5869 65.63 27.5464V26.4464H65.26C65.1397 26.4465 65.0242 26.3994 64.9382 26.3152C64.8522 26.2311 64.8026 26.1167 64.8 25.9964V22.8564C64.8026 22.7362 64.8522 22.6217 64.9382 22.5376C65.0242 22.4535 65.1397 22.4064 65.26 22.4064H65.63V12.4064L46.53 18.3064C43.125 19.1513 39.565 19.1513 36.16 18.3064L15.1 11.9964L13.2 11.4264C10.82 10.4264 11.42 8.17642 13.63 7.65642L37.45 0.566425C39.8486 -0.188808 42.4214 -0.188808 44.82 0.566425L68.22 7.56642C70.76 8.17642 71.22 10.5664 68.3 11.5064L67.8 11.6564V11.6864Z" fill="#5136A9"/>
</svg>
