<?xml version="1.0" encoding="UTF-8"?>
<svg version="1.1" xmlns="http://www.w3.org/2000/svg" width="413" height="366">
<path d="M0 0 C136.29 0 272.58 0 413 0 C413 120.78 413 241.56 413 366 C276.71 366 140.42 366 0 366 C0 245.22 0 124.44 0 0 Z " fill="#FEFEFE" transform="translate(0,0)"/>
<path d="M0 0 C8.43562121 5.45834314 13.83617765 15.31004242 16 25 C16.32603164 28.86691843 16.28756391 32.6856651 16.1875 36.5625 C16.17396484 37.57119141 16.16042969 38.57988281 16.14648438 39.61914062 C16.11149576 42.08000621 16.06241158 44.53970335 16 47 C14.90042969 47.27972656 13.80085937 47.55945313 12.66796875 47.84765625 C8.47711636 49.16427122 6.90384028 50.78223105 4 54 C1.56699318 56.27603864 0.45868195 56.94017192 -2.875 57.375 C-6.45146898 56.94582372 -8.89030715 55.77696734 -12 54 C-11.67012361 56.47407292 -11.42027913 57.6637767 -9.4375 59.25 C-5.82375554 60.36192137 -2.67519664 60.8971999 1 60 C3.31655997 58.41846262 5.24234709 56.69415682 7.23828125 54.7265625 C10.31574513 51.71051143 11.59442951 51 16 51 C16 60.57 16 70.14 16 80 C13.525 77.525 13.525 77.525 11 75 C2.71755021 67.58938703 -4.22473132 67.59648786 -15 68 C-15.495 69.485 -15.495 69.485 -16 71 C-15.17757812 70.95359375 -14.35515625 70.9071875 -13.5078125 70.859375 C-5.19541308 70.59061382 2.32617733 70.91040516 8.84375 76.61328125 C13.9803638 82.29125386 16.38072244 87.64747642 16.34057617 95.38232422 C16.34101425 96.09521103 16.34145233 96.80809784 16.34190369 97.54258728 C16.33982693 99.88024042 16.3165498 102.2171609 16.29296875 104.5546875 C16.28736881 106.18278614 16.28310059 107.81088985 16.28010559 109.43899536 C16.26868812 113.71014528 16.23924794 117.98098588 16.20599365 122.25201416 C16.17522571 126.61588355 16.16158592 130.97980325 16.14648438 135.34375 C16.11437497 143.89597478 16.06321651 152.44794884 16 161 C12.1146183 157.81673978 8.82584193 154.83486646 5.6875 150.875 C4.92953125 149.92753906 4.1715625 148.98007813 3.390625 148.00390625 C2.60171875 147.01261719 1.8128125 146.02132812 1 145 C-0.68095676 142.93206499 -2.37189977 140.87258676 -4.0625 138.8125 C-5.375 137.20833333 -6.6875 135.60416667 -8 134 C-6.96692716 131.41297726 -5.92975072 128.82827953 -4.875 126.25 C-2.55900623 117.64773743 -4.21468981 108.3444684 -7 100 C-8.485 99.505 -8.485 99.505 -10 99 C-9.54947266 100.79244141 -9.54947266 100.79244141 -9.08984375 102.62109375 C-8.70495146 104.22637623 -8.32088075 105.83185586 -7.9375 107.4375 C-7.73833984 108.22060547 -7.53917969 109.00371094 -7.33398438 109.81054688 C-5.92656713 115.8105888 -4.95541515 122.35829531 -8.10327148 127.96508789 C-11.69804553 132.89964648 -16.92407981 135.46628712 -22.15625 138.38671875 C-28.54481684 142.01100186 -32.54687608 145.97456133 -35 153 C-35.54712135 155.69882548 -35.80309709 158.24335927 -36 161 C-35.34 161 -34.68 161 -34 161 C-33.86464844 160.3709375 -33.72929688 159.741875 -33.58984375 159.09375 C-31.49827915 150.77758894 -28.08143767 145.67844347 -20.875 140.94921875 C-17.9491886 139.22754436 -15.00486122 137.57890902 -12 136 C-6.95221848 139.75347857 -3.29223774 144.17886711 0.625 149.08203125 C3.6079378 152.74692358 6.76213614 156.23088782 9.95703125 159.7109375 C10.63121094 160.46632812 11.30539063 161.22171875 12 162 C13.11181641 162.99966797 13.11181641 162.99966797 14.24609375 164.01953125 C17.08945033 168.85133765 16.41674532 173.82593768 16.25 179.3125 C16.23195312 180.43462891 16.21390625 181.55675781 16.1953125 182.71289062 C16.14827856 185.47613447 16.08256317 188.23762698 16 191 C14.75863281 190.97550781 13.51726562 190.95101562 12.23828125 190.92578125 C7.39461178 190.8302156 3.80711771 192.00004505 0 195 C-2.50567809 197.64417375 -4.81484047 200.44477962 -7.0559082 203.31518555 C-9.7249732 206.70207283 -12.03328444 209.22575023 -16 211 C-22.07332931 211.58092715 -26.28265244 209.56677498 -31 206 C-31.66 206 -32.32 206 -33 206 C-31.6041054 210.18768379 -29.34187478 210.99854375 -25.52734375 212.95703125 C-21.44112252 214.64330802 -18.28458391 215.36818646 -14 214 C-7.99158539 209.88363607 -3.16316289 204.3349175 1.4296875 198.7265625 C4.4118506 195.44766675 6.11722628 194.06088095 10.625 193.75 C14 194 14 194 16 195 C16 209.52 16 224.04 16 239 C10.555 236.525 10.555 236.525 5 234 C-7.08618497 231.00793226 -19.05969742 232.32923378 -29.72265625 238.6015625 C-31.45383092 239.65272179 -33.1717981 240.72617405 -34.87109375 241.828125 C-37 243 -37 243 -40 243 C-40.4125 242.566875 -40.825 242.13375 -41.25 241.6875 C-44.49238016 238.56091913 -48.53322222 237 -53 237 C-52.67 237.99 -52.34 238.98 -52 240 C-50.00458132 240.68025637 -48.00382009 241.34490497 -46 242 C-41.61331905 244.71556439 -40.05369479 247.64107742 -37.96875 252.1640625 C-36.1036806 255.69866982 -33.66498371 256.77833876 -30 258 C-31.55500981 254.18315774 -34.03595495 251.80804268 -37 249 C-34.58778949 242.89697559 -28.48578466 240.77590165 -22.9375 237.94921875 C-13.73732818 234.15774169 -2.02847646 234.40151643 7.1340332 238.10375977 C14.3101496 241.3101496 14.3101496 241.3101496 16 243 C17.10640616 250.9601706 18.56758055 261.93542159 13.83984375 268.87109375 C10.41583361 272.91207115 6.66079727 276.69763667 1.25 277.3125 C-2.79423405 276.92363134 -4.73583908 275.34168066 -8 273 C-10.22602615 272.23060319 -10.22602615 272.23060319 -12 272 C-10.67104936 275.98685192 -8.77674491 276.8968903 -5.25390625 278.9765625 C-1.47819915 280.69100836 0.87182597 280.59925107 5 280 C9.41397514 277.66318963 12.516201 274.53064 16 271 C16.08829061 274.79151583 16.14081946 278.58276165 16.1875 282.375 C16.21263672 283.43589844 16.23777344 284.49679687 16.26367188 285.58984375 C16.37264752 297.43186424 13.40833389 307.83864846 5.37109375 316.8203125 C-1.48347215 323.15005085 -8.77026043 325.73747419 -18.07421875 325.3828125 C-25.65007834 324.39157853 -31.86231747 320.57438555 -37 315 C-41.40433671 309.23127637 -45.06462155 302.74804971 -44.9375 295.375 C-42.9260824 288.13389665 -39.08864584 284.86103082 -32.75 281.2578125 C-28.6216011 279.36953914 -24.48564964 278.55354825 -20 278 C-19.67 277.01 -19.34 276.02 -19 275 C-28.73494207 275.97014887 -36.55273534 278.32467049 -43.4375 285.5625 C-45.0517354 287.99398989 -45.0517354 287.99398989 -46.375 290.6875 C-48.56761647 293.8077619 -50.34351072 294.03437783 -54 295 C-62.12678562 295.810793 -69.18451928 295.78250114 -76 291 C-76.86625 290.443125 -77.7325 289.88625 -78.625 289.3125 C-86.38859756 281.75320764 -90.91510055 271.70629334 -91.8125 260.9375 C-91.50251899 254.21263424 -88.49253772 250.93098091 -83.66210938 246.50634766 C-83.11361328 246.00925293 -82.56511719 245.5121582 -82 245 C-79.85528381 243.01828644 -77.71540835 241.03160304 -75.57983398 239.04003906 C-74.10389826 237.67137766 -72.61688567 236.31453408 -71.11743164 234.97167969 C-58.03440637 223.02428682 -54.79177478 209.0454364 -53 192 C-52.00419922 191.72736328 -52.00419922 191.72736328 -50.98828125 191.44921875 C-46.22425934 190.09303733 -42.17463694 188.73960549 -38 186 C-37.34 186 -36.68 186 -36 186 C-36 184.68 -36 183.36 -36 182 C-36.82242188 182.433125 -37.64484375 182.86625 -38.4921875 183.3125 C-46.29522353 187.20500758 -52.49834351 189.83873095 -61.11328125 187.40234375 C-68.10605006 184.4830325 -73.62002136 178.11811506 -77 171.4375 C-77.33 170.633125 -77.66 169.82875 -78 169 C-78.66 169 -79.32 169 -80 169 C-78.32212837 177.18874309 -72.51360108 183.30873108 -66.0625 188.25 C-62.89603294 190.05940975 -60.56942679 190.50355677 -57 191 C-56.39913597 206.24414288 -58.77480905 217.11450368 -68.68359375 229.0234375 C-70.25 230.6875 -70.25 230.6875 -73 233 C-73.99 233 -74.98 233 -76 233 C-79.41719759 226.6842866 -81.07850474 221.20637258 -80 214 C-78.4375 210.5625 -78.4375 210.5625 -77 208 C-77.33 207.01 -77.66 206.02 -78 205 C-82.68540816 209.97824617 -82.56887487 214.78838059 -82.4140625 221.4453125 C-81.91348374 225.74273394 -80.67184261 229.09902036 -78.6796875 232.9140625 C-78 235 -78 235 -78.640625 237.05859375 C-80.17589453 239.2512057 -81.80326759 240.74493371 -83.875 242.4375 C-86.40340071 244.54753225 -88.17508116 246.24202396 -90.125 248.9375 C-92 251 -92 251 -94.75 251.625 C-102.19589379 250.19309735 -108.36382975 244.83187352 -113 239 C-116.38932328 233.56131845 -118.6713968 228.4625296 -119 222 C-119.061875 221.03191406 -119.12375 220.06382812 -119.1875 219.06640625 C-119.50997893 210.51063724 -118.62042116 202.86521488 -113.38671875 195.83203125 C-109.11223796 191.23530579 -105.15623397 189.22599248 -98.78125 188.76953125 C-97.6984375 188.78371094 -96.615625 188.79789063 -95.5 188.8125 C-93.87578125 188.82216797 -93.87578125 188.82216797 -92.21875 188.83203125 C-89.07579556 188.99604465 -86.09044483 189.41821445 -83 190 C-83.33 189.01 -83.66 188.02 -84 187 C-89.93450491 184.48811797 -100.6683588 184.93464962 -106.6875 186.859375 C-108.51058399 187.81235072 -110.26310172 188.89773763 -112 190 C-113.98828125 190.78125 -113.98828125 190.78125 -116 191 C-123.24725885 187.12506742 -127.45248309 179.3645541 -129.8125 171.8125 C-132.31092329 161.43112048 -131.95007486 151.56724995 -127 142 C-123.67626845 136.7308616 -121.05390021 133.00412134 -115 131 C-112.87453098 132.9578264 -110.74960666 134.91623817 -108.625 136.875 C-108.02171875 137.43058594 -107.4184375 137.98617187 -106.796875 138.55859375 C-106.21679688 139.09355469 -105.63671875 139.62851563 -105.0390625 140.1796875 C-104.50490723 140.67194824 -103.97075195 141.16420898 -103.42041016 141.67138672 C-102.25855182 142.75815762 -101.12494128 143.87505872 -100 145 C-99.93155955 147.46683184 -99.96294407 149.85212774 -100.0625 152.3125 C-100.21459969 159.71496525 -99.77819501 167.03736312 -97 174 C-96.01 174.33 -95.02 174.66 -94 175 C-94.2165625 174.22398437 -94.433125 173.44796875 -94.65625 172.6484375 C-96.98404654 163.61744909 -99.26463955 153.55866071 -95.625 144.625 C-93.19519608 142.19519608 -90.7218358 140.21254368 -88 138.125 C-82.31387833 133.76201121 -80.25737147 129.77211442 -78 123 C-77.96045766 120.66700175 -77.95598268 118.33291811 -78 116 C-78.66 116 -79.32 116 -80 116 C-80.10957031 116.66386719 -80.21914062 117.32773438 -80.33203125 118.01171875 C-80.56986328 119.33623047 -80.56986328 119.33623047 -80.8125 120.6875 C-80.96332031 121.55761719 -81.11414063 122.42773438 -81.26953125 123.32421875 C-82.91693721 129.35883417 -86.65186694 132.81109934 -91.1875 136.8125 C-91.74630859 137.31458984 -92.30511719 137.81667969 -92.88085938 138.33398438 C-94.24883954 139.56165889 -95.62372916 140.7816269 -97 142 C-101.18658105 139.7468582 -104.34956549 136.89241432 -107.625 133.5 C-108.10195312 133.01402344 -108.57890625 132.52804688 -109.0703125 132.02734375 C-110.38375321 130.68836391 -111.69207529 129.34436843 -113 128 C-113.84304687 127.20916016 -113.84304687 127.20916016 -114.703125 126.40234375 C-116.23722678 124.74348068 -117.13604662 123.09102248 -118.125 121.0625 C-118.45757812 120.39347656 -118.79015625 119.72445312 -119.1328125 119.03515625 C-122.64757799 110.78653995 -122.21720285 99.40867483 -119.375 91 C-115.85924218 82.80066271 -110.71519344 76.56033721 -103 72 C-98.54952547 70.26506925 -95.56380974 69.54691684 -91 71 C-89.078125 72.92578125 -89.078125 72.92578125 -87.25 75.3125 C-82.75255799 80.60162655 -78.45415004 83.53545674 -71.453125 84.265625 C-66.56284173 84.35453924 -61.81177003 83.83682957 -57 83 C-57 81.68 -57 80.36 -57 79 C-58.7634375 79.495 -58.7634375 79.495 -60.5625 80 C-68.52111112 81.92344717 -74.86347378 81.04442342 -82 77 C-86.02005819 73.36791457 -89.82728246 68.99634554 -90.30078125 63.5234375 C-90.32050751 62.14076019 -90.32359897 60.75777347 -90.3125 59.375 C-90.30404053 58.29303345 -90.30404053 58.29303345 -90.29541016 57.18920898 C-90.07953929 47.69195936 -87.12087831 40.33676385 -81 33 C-75.17961868 27.46883017 -68.59025446 23.9580465 -60.5 23.625 C-55.9447875 23.85236861 -51.73369352 24.19773962 -48 27 C-46.30030478 29.67156125 -44.94958854 32.41662859 -43.5703125 35.265625 C-40.48049212 40.64590925 -35.45247797 43.37069396 -30 46 C-30.15977314 52.39092576 -33.67027147 55.73859066 -38 60 C-39.80678752 61.54608872 -41.62400318 63.04472552 -43.51953125 64.48046875 C-47.1894258 68.24719429 -47.21846153 72.51016931 -47.17578125 77.48242188 C-47.15902344 78.25134766 -47.14226562 79.02027344 -47.125 79.8125 C-47.11597656 80.60076172 -47.10695313 81.38902344 -47.09765625 82.20117188 C-47.07422504 84.13424666 -47.03835838 86.0671638 -47 88 C-46.01 88 -45.02 88 -44 88 C-44.05800781 86.77023438 -44.11601563 85.54046875 -44.17578125 84.2734375 C-44.22270005 82.64066312 -44.26819794 81.00784748 -44.3125 79.375 C-44.35439453 78.56675781 -44.39628906 77.75851563 -44.43945312 76.92578125 C-44.52410171 72.76107096 -44.41284983 69.92351552 -41.73828125 66.60546875 C-39.51177276 64.48695069 -37.41628418 62.64663819 -34.875 60.9375 C-29.63189297 57.14314623 -27.85732109 53.14344669 -26 47 C-21.05 46.505 -21.05 46.505 -16 46 C-16 45.34 -16 44.68 -16 44 C-16.99 43.91363281 -17.98 43.82726562 -19 43.73828125 C-33.80806362 42.25316204 -33.80806362 42.25316204 -39 37 C-42.34911576 32.87746555 -45.56870325 28.52744715 -45.1875 23 C-42.80234447 12.80140393 -36.78797523 5.13426802 -28.375 -0.875 C-18.42363193 -5.58880593 -9.70274784 -5.09605191 0 0 Z " fill="#824FC9" transform="translate(134,36)"/>
<path d="M0 0 C9.61587663 4.90254891 15.6696771 12.40052383 19.3125 22.4375 C20.44994441 26.70618504 20.41975335 29.55135403 18.5234375 33.5546875 C14.73645156 39.44283983 10.08298858 43.43965091 3.3125 45.4375 C-0.68256577 45.94441161 -4.66574146 46.24598769 -8.6875 46.4375 C-9.0175 47.4275 -9.3475 48.4175 -9.6875 49.4375 C-6.0575 49.4375 -2.4275 49.4375 1.3125 49.4375 C1.89 50.819375 2.4675 52.20125 3.0625 53.625 C6.03998591 60.24163536 9.72668101 63.9717757 15.60546875 68.10546875 C17.3125 69.4375 17.3125 69.4375 18.3125 71.4375 C18.40417789 73.53105019 18.43000933 75.62759177 18.42602539 77.72314453 C18.42617142 78.36717224 18.42631744 79.01119995 18.4264679 79.67474365 C18.4257704 81.80663402 18.41798566 83.93843737 18.41015625 86.0703125 C18.40829149 87.54718986 18.40686786 89.02406784 18.40586853 90.50094604 C18.40204792 94.39062199 18.39222152 98.28026067 18.38116455 102.16992188 C18.37094064 106.13801571 18.36636881 110.10611555 18.36132812 114.07421875 C18.35059885 121.86199616 18.33352789 129.64974286 18.3125 137.4375 C20.09696533 137.3746582 20.09696533 137.3746582 21.91748047 137.31054688 C26.37124647 137.16471011 30.82480608 137.07353768 35.28027344 136.99804688 C37.20088294 136.95804762 39.12125243 136.90362671 41.04101562 136.83398438 C59.03903229 136.19787984 59.03903229 136.19787984 65.5 141.265625 C70.66944716 146.3439291 72.42333325 150.87339051 72.6875 158.0625 C72.53521146 164.74627475 71.05471529 171.00789595 69.3125 177.4375 C70.3025 177.1075 71.2925 176.7775 72.3125 176.4375 C74.67627794 168.42691919 75.90703363 159.61295868 74.75 151.3125 C75.55953137 145.73572836 78.63930145 143.23180006 82.5390625 139.34375 C85.3125 137.4375 85.3125 137.4375 91.3125 137.4375 C91.3125 146.6775 91.3125 155.9175 91.3125 165.4375 C95.9325 165.4375 100.5525 165.4375 105.3125 165.4375 C105.3125 176.20624535 101.61770847 183.57296003 94.3125 191.4375 C91.3125 193.4375 91.3125 193.4375 89.125 193.3125 C86.3125 192.4375 86.3125 192.4375 82.9375 190.375 C76.46510371 186.95281345 67.97981648 187.7892616 60.921875 188.76953125 C60.39078125 188.98996094 59.8596875 189.21039063 59.3125 189.4375 C58.9825 190.4275 58.6525 191.4175 58.3125 192.4375 C59.17101562 192.27894531 60.02953125 192.12039062 60.9140625 191.95703125 C68.55869691 190.78836875 76.75378936 189.97486824 83.6015625 194.12109375 C89.95592228 199.01017878 93.0102503 204.53790266 94.3125 212.4375 C95.38182467 223.81722673 93.74318101 234.40018526 86.3125 243.4375 C76.55793332 252.97569921 76.55793332 252.97569921 70.34765625 253.859375 C66.29557518 253.29615138 65.28791567 251.82924892 62.75 248.6875 C59.83404247 245.13221488 56.99391765 242.20665071 53.3125 239.4375 C53.92847792 236.70447173 54.69415627 234.59785622 55.875 232 C58.46174492 225.20820176 58.3821509 217.49364543 56 210.6875 C54.44096753 208.16409474 54.44096753 208.16409474 51.3125 207.4375 C51.60125 207.98277344 51.89 208.52804688 52.1875 209.08984375 C55.73787544 216.30154386 56.58159509 222.16462055 54.0625 229.875 C52.24837949 233.56803104 51.85557347 233.98074045 48.3125 235.4375 C39.35505279 227.43410042 34.03216321 218.41635056 32.3125 206.4375 C32.1032154 202.08903113 32.12313074 197.78597921 32.3125 193.4375 C33.1478125 193.23447266 33.1478125 193.23447266 34 193.02734375 C43.54558957 190.33458453 48.93508571 184.58611961 54.28125 176.453125 C55.5402379 174.36972856 55.5402379 174.36972856 55.3125 171.4375 C54.6525 171.4375 53.9925 171.4375 53.3125 171.4375 C52.37534078 172.920838 51.51342526 174.4519669 50.6875 176 C47.16549657 182.07093501 42.92951434 186.24825448 36.9375 189.875 C26.98702565 192.0072445 20.16954056 189.10202293 11.3125 184.4375 C11.67706537 186.89189784 11.86458914 188.09570269 13.87890625 189.6328125 C14.53761719 189.93960938 15.19632813 190.24640625 15.875 190.5625 C16.83599609 191.03042969 16.83599609 191.03042969 17.81640625 191.5078125 C21.25625512 192.78900817 24.74085742 193.59049977 28.3125 194.4375 C28.44205078 196.05205078 28.44205078 196.05205078 28.57421875 197.69921875 C30.49218442 218.65468036 38.5730656 231.47218772 54.4375 245 C55.7301638 246.14470831 57.02183797 247.29053516 58.3125 248.4375 C58.99054688 248.99308594 59.66859375 249.54867187 60.3671875 250.12109375 C63.66937278 253.20445952 65.13594498 255.37456671 65.88671875 259.89453125 C66.20915122 270.86835356 64.2400094 279.36653604 57.125 287.8125 C50.35106304 294.70720407 45.45382992 297.68769592 35.625 297.9375 C30.37779514 297.89390951 26.76815376 297.288607 22.3125 294.4375 C20.6953125 292.3515625 20.6953125 292.3515625 19.4375 290.0625 C16.47866454 285.28642702 13.29588331 282.90834068 8.3125 280.4375 C7.508125 280.025 6.70375 279.6125 5.875 279.1875 C2.08109292 278.07708817 -1.75743457 277.76286489 -5.6875 277.4375 C-5.1925 278.9225 -5.1925 278.9225 -4.6875 280.4375 C-3.74390625 280.56705078 -3.74390625 280.56705078 -2.78125 280.69921875 C6.20798511 282.17486126 12.50878218 285.53747949 18.1796875 292.7578125 C19.79970901 295.15991336 20.38231984 296.5050668 20.3125 299.4375 C18.23983003 308.79154968 13.05611059 317.67718704 5.3125 323.4375 C-2.63614789 327.57665766 -10.99663633 329.04281783 -19.6875 326.5 C-27.58030562 323.08992374 -33.78148565 316.35582854 -37.75 308.87109375 C-40.79283686 300.97239639 -40.93744356 293.82794066 -40.8125 285.4375 C-40.79896484 283.70306641 -40.79896484 283.70306641 -40.78515625 281.93359375 C-40.76174922 279.10134353 -40.72895995 276.26953381 -40.6875 273.4375 C-38.25 275.875 -35.8125 278.3125 -33.375 280.75 C-29.75143455 283.02526202 -26.78401259 283.28881789 -22.6875 282.4375 C-19.42036051 281.13578931 -16.39965416 279.69268289 -13.6875 277.4375 C-12.88389623 275.35493147 -12.88389623 275.35493147 -12.6875 273.4375 C-13.409375 273.870625 -14.13125 274.30375 -14.875 274.75 C-15.803125 275.306875 -16.73125 275.86375 -17.6875 276.4375 C-18.47125 276.994375 -19.255 277.55125 -20.0625 278.125 C-23.54571947 279.86660973 -25.83672898 279.91884638 -29.6875 279.4375 C-34.3802165 276.690544 -38.1540324 272.23214436 -40.6875 267.4375 C-41.38077766 263.56434698 -41.26304875 259.85591396 -41.0625 255.9375 C-41.03542969 254.92429687 -41.00835937 253.91109375 -40.98046875 252.8671875 C-40.91031308 250.38835369 -40.81209639 247.91409295 -40.6875 245.4375 C-38.94068707 244.45265892 -37.1899149 243.47483813 -35.4375 242.5 C-34.46296875 241.95472656 -33.4884375 241.40945313 -32.484375 240.84765625 C-24.88822157 237.01775207 -14.7611321 237.3345365 -6.54296875 239.12109375 C9.40325194 244.61900389 9.40325194 244.61900389 12.3125 250.4375 C10.8398138 253.71013601 9.88554568 255.15764048 6.625 256.75 C5.4803125 257.0903125 5.4803125 257.0903125 4.3125 257.4375 C4.3125 258.4275 4.3125 259.4175 4.3125 260.4375 C8.94600146 258.92270145 10.74409331 258.32354572 13.4375 254.125 C13.74300781 253.5165625 14.04851562 252.908125 14.36328125 252.28125 C16.20149736 248.71072323 18.3837985 245.27728878 22.1875 243.62109375 C24.125 243.0625 24.125 243.0625 27.3125 242.4375 C26.9825 241.4475 26.6525 240.4575 26.3125 239.4375 C22.74237824 240.45753479 20.26886233 241.46956033 17.25 243.6875 C16.280625 244.265 15.31125 244.8425 14.3125 245.4375 C9.47558773 244.00154167 5.02047599 241.28229004 0.57226562 238.91601562 C-8.43097088 234.28156274 -19.78197677 233.75454739 -29.484375 236.51953125 C-33.3117917 237.99521302 -37.01962531 239.60356266 -40.6875 241.4375 C-40.71277124 235.18954325 -40.73033344 228.94159959 -40.74243164 222.69360352 C-40.74747298 220.56631986 -40.75430591 218.43903969 -40.76293945 216.31176758 C-40.77501379 213.26122174 -40.78073014 210.21072155 -40.78515625 207.16015625 C-40.79031754 206.20287125 -40.79547882 205.24558624 -40.80079651 204.2592926 C-40.80087204 203.37845505 -40.80094757 202.49761749 -40.80102539 201.59008789 C-40.803246 200.81065323 -40.80546661 200.03121857 -40.80775452 199.22816467 C-40.6875 197.4375 -40.6875 197.4375 -39.6875 196.4375 C-35.21255525 195.99877993 -32.03959988 196.14816192 -28.359375 198.8984375 C-25.29119928 201.72287963 -22.56876935 204.85484615 -19.8359375 208 C-14.55669876 214.23035592 -14.55669876 214.23035592 -7.125 216.875 C-1.82166894 216.7468526 3.07917709 214.57329475 7.3125 211.4375 C8.15703028 209.35939044 8.15703028 209.35939044 8.3125 207.4375 C7.51585937 207.870625 6.71921875 208.30375 5.8984375 208.75 C4.83882812 209.306875 3.77921875 209.86375 2.6875 210.4375 C1.64335937 210.994375 0.59921875 211.55125 -0.4765625 212.125 C-3.91672821 213.53119912 -6.01564286 213.92037436 -9.6875 213.4375 C-14.26930309 210.74232171 -17.67005505 206.62547838 -20.6875 202.3125 C-23.6414557 198.21199546 -26.91470102 195.2340463 -31.6875 193.4375 C-34.6785832 192.97817579 -37.67168013 192.67962252 -40.6875 192.4375 C-42.93908419 171.99204973 -42.93908419 171.99204973 -38.21484375 165.0625 C-35.56195777 161.85313086 -32.58269459 159.00660562 -29.51855469 156.19335938 C-26.4326845 153.23421559 -23.77901669 149.91981446 -21.0625 146.625 C-18.44757237 143.49481778 -16.11752634 140.72418423 -12.6875 138.4375 C5.06830486 148.57991079 5.06830486 148.57991079 8.0625 158.8125 C8.36414063 160.09253906 8.36414063 160.09253906 8.671875 161.3984375 C8.98898438 162.40777344 8.98898438 162.40777344 9.3125 163.4375 C9.9725 163.7675 10.6325 164.0975 11.3125 164.4375 C10.43161043 157.28520257 9.41419704 150.81372782 4.3125 145.4375 C1.65900281 143.48272934 -1.05940759 141.77730441 -3.89453125 140.09765625 C-6.43269455 138.58895779 -8.81262087 137.00152823 -11.1875 135.25 C-11.7959375 134.80269531 -12.404375 134.35539063 -13.03125 133.89453125 C-15.89201577 131.37786702 -17.48246323 129.05261031 -18.6875 125.4375 C-18.99896865 119.41577269 -18.1797355 114.25520191 -16.6875 108.4375 C-16.49671875 107.66277344 -16.3059375 106.88804687 -16.109375 106.08984375 C-15.64365457 104.20367601 -15.16675183 102.32027506 -14.6875 100.4375 C-15.6775 100.4375 -16.6675 100.4375 -17.6875 100.4375 C-20.60081931 109.5936464 -21.98364987 118.86436156 -20.6875 128.4375 C-19.97722656 129.48164063 -19.26695312 130.52578125 -18.53515625 131.6015625 C-16.6875 134.4375 -16.6875 134.4375 -17.12109375 136.9609375 C-19.03105476 139.98067636 -21.27394276 142.50958067 -23.75 145.0625 C-28.40235264 149.97867367 -32.70848311 155.04449312 -36.91015625 160.35546875 C-38.6875 162.4375 -38.6875 162.4375 -40.6875 163.4375 C-40.78040462 154.05771468 -40.8513683 144.67808909 -40.89474869 135.29794312 C-40.91557492 130.94178959 -40.94380099 126.58595213 -40.98925781 122.22998047 C-41.03289387 118.02189043 -41.0566744 113.81410337 -41.06700897 109.60580444 C-41.07436863 108.00470209 -41.0887402 106.4036153 -41.11042023 104.80264282 C-41.33220325 87.73781742 -41.33220325 87.73781742 -34.72265625 80.1953125 C-27.6238688 74.31948447 -22.89663361 72.90910709 -13.6875 73.4375 C-10.5625 73.9375 -10.5625 73.9375 -8.6875 74.4375 C-8.6875 73.1175 -8.6875 71.7975 -8.6875 70.4375 C-21.2832585 69.70830608 -21.2832585 69.70830608 -32.6875 74.4375 C-33.74324219 74.93636719 -33.74324219 74.93636719 -34.8203125 75.4453125 C-37.20859985 76.71440243 -37.62319227 78.00479662 -38.6875 80.4375 C-39.6775 81.4275 -39.6775 81.4275 -40.6875 82.4375 C-40.6875 72.8675 -40.6875 63.2975 -40.6875 53.4375 C-33.95555778 54.55949037 -33.95555778 54.55949037 -30.9375 57.9375 C-27.75739623 61.43274919 -26.75723247 62.38573875 -21.8125 62.625 C-18.64072889 62.57319249 -16.2504021 62.48782168 -13.6875 60.4375 C-12.88221111 58.38749129 -12.88221111 58.38749129 -12.6875 56.4375 C-13.55375 56.9325 -14.42 57.4275 -15.3125 57.9375 C-19.0455201 59.59662005 -20.68411437 60.23817713 -24.6875 59.4375 C-26.90543769 57.815237 -28.8723026 56.06508568 -30.85546875 54.1640625 C-33.99488987 51.20537565 -36.50077629 50.11642817 -40.6875 49.4375 C-40.74646868 46.29174793 -40.78141603 43.1461414 -40.8125 40 C-40.82925781 39.12150391 -40.84601563 38.24300781 -40.86328125 37.33789062 C-40.93625245 27.45029345 -39.12544475 19.73912434 -33.6875 11.4375 C-33.27886719 10.80714844 -32.87023437 10.17679688 -32.44921875 9.52734375 C-24.8684234 -0.64747006 -11.75808661 -4.61061958 0 0 Z " fill="#CDC7ED" transform="translate(195.6875,33.5625)"/>
<path d="M0 0 C20.79 0 41.58 0 63 0 C63 20.79 63 41.58 63 63 C42.21 63 21.42 63 0 63 C0 42.21 0 21.42 0 0 Z " fill="#CDC7ED" transform="translate(220,102)"/>
<path d="M0 0 C13.86 0 27.72 0 42 0 C42 13.86 42 27.72 42 42 C28.14 42 14.28 42 0 42 C0 28.14 0 14.28 0 0 Z " fill="#8250C9" transform="translate(243,5)"/>
<path d="M0 0 C8.54479364 6.23122136 14.13718472 13.44404677 16 24 C16 26.64 16 29.28 16 32 C0.49 32 -15.02 32 -31 32 C-31.33 32.99 -31.66 33.98 -32 35 C-37.54393409 31.32647086 -41.39917282 28.21936935 -44 22 C-43.8515625 19.42578125 -43.8515625 19.42578125 -43 17 C-41.14453125 15.734375 -41.14453125 15.734375 -38.8125 14.75 C-32.38851411 11.52268753 -29.67895088 6.28794546 -26.5 0.0625 C-20.69762697 -7.91576292 -7.02166587 -4.30932562 0 0 Z " fill="#CDC7ED" transform="translate(245,64)"/>
<path d="M0 0 C11.88 0 23.76 0 36 0 C36 11.88 36 23.76 36 36 C24.12 36 12.24 36 0 36 C0 24.12 0 12.24 0 0 Z " fill="#CDC7ED" transform="translate(291,63)"/>
<path d="M0 0 C10.56 0 21.12 0 32 0 C32 10.23 32 20.46 32 31 C21.44 31 10.88 31 0 31 C0 20.77 0 10.54 0 0 Z " fill="#CDC7ED" transform="translate(294,161)"/>
<path d="M0 0 C10.56 0 21.12 0 32 0 C32 10.23 32 20.46 32 31 C21.44 31 10.88 31 0 31 C0 20.77 0 10.54 0 0 Z " fill="#CDC7ED" transform="translate(349,118)"/>
<path d="M0 0 C1 9 2 18 3 27 C-0.37398089 27.50704109 -3.74932621 28.00436536 -7.125 28.5 C-8.07632812 28.64308594 -9.02765625 28.78617188 -10.0078125 28.93359375 C-19.39220265 30.30215065 -19.39220265 30.30215065 -24 30 C-26.14700258 27.85299742 -25.74445974 23.41294333 -26.0625 20.4375 C-26.19881836 19.25704102 -26.19881836 19.25704102 -26.33789062 18.05273438 C-26.89155154 13.00318032 -27.08727189 8.07922421 -27 3 C-23.06287835 2.49699023 -19.12524457 1.99810786 -15.1875 1.5 C-14.06794922 1.35691406 -12.94839844 1.21382813 -11.79492188 1.06640625 C-10.72177734 0.93105469 -9.64863281 0.79570313 -8.54296875 0.65625 C-7.55321045 0.53056641 -6.56345215 0.40488281 -5.54370117 0.27539062 C-3 0 -3 0 0 0 Z " fill="#8250C9" transform="translate(403,63)"/>
<path d="M0 0 C6.54849313 1.16204993 12.74538144 2.73383385 19 5 C18.46048934 11.68993219 17.11293829 17.63460728 15 24 C10.80716882 23.35155914 6.73500079 22.48783354 2.625 21.4375 C1.56539063 21.16808594 0.50578125 20.89867187 -0.5859375 20.62109375 C-1.38257813 20.41613281 -2.17921875 20.21117187 -3 20 C-4.43027825 15.36733774 -3.39403523 11.6905884 -2.0625 7.1875 C-1.86720703 6.49462891 -1.67191406 5.80175781 -1.47070312 5.08789062 C-0.99035554 3.38910039 -0.49651979 1.69413405 0 0 Z " fill="#8453CA" transform="translate(313,115)"/>
<path d="M0 0 C5.61 0 11.22 0 17 0 C17 5.94 17 11.88 17 18 C11.39 18 5.78 18 0 18 C0 12.06 0 6.12 0 0 Z " fill="#CFC9ED" transform="translate(310,5)"/>
<path d="M0 0 C3.63061667 1.53218685 5.9863773 3.7183144 8.75 6.5 C9.54921875 7.2940625 10.3484375 8.088125 11.171875 8.90625 C13 11 13 11 13 13 C11.35546875 14.62109375 11.35546875 14.62109375 9.1875 16.4375 C6.68897282 18.54463676 4.2757944 20.65241398 2 23 C-1.68069887 21.46356148 -3.98775204 19.21849055 -6.75 16.375 C-7.54921875 15.55773438 -8.3484375 14.74046875 -9.171875 13.8984375 C-9.77515625 13.27195312 -10.3784375 12.64546875 -11 12 C-7.49102731 7.81576108 -3.91939465 3.80411834 0 0 Z " fill="#8553CA" transform="translate(355,22)"/>
<path d="M0 0 C5.61 0 11.22 0 17 0 C17 5.61 17 11.22 17 17 C11.39 17 5.78 17 0 17 C0 11.39 0 5.78 0 0 Z " fill="#CDC7ED" transform="translate(393,20)"/>
<path d="M0 0 C3.3 0 6.6 0 10 0 C10 3.3 10 6.6 10 10 C6.7 10 3.4 10 0 10 C0 6.7 0 3.4 0 0 Z " fill="#CDC7ED" transform="translate(346,80)"/>
<path d="M0 0 C4.29 0 8.58 0 13 0 C11.66667905 3.99996286 9.5042173 4.83782337 6 7 C3.95880212 5.38405168 1.95927063 3.7143618 0 2 C0 1.34 0 0.68 0 0 Z " fill="#956AD1" transform="translate(262,171)"/>
</svg>
